<?plantuml 1.2026.1?><svg xmlns="http://www.w3.org/2000/svg" xmlns:xlink="http://www.w3.org/1999/xlink" contentStyleType="text/css" data-diagram-type="CLASS" height="775px" preserveAspectRatio="none" style="width:456px;height:775px;background:#FFFFFF;" version="1.1" viewBox="0 0 456 775" width="456px" zoomAndPan="magnify"><defs/><g><!--entity n0--><g class="entity" data-qualified-name="n0" data-source-line="10" id="ent0002"><rect fill="#F5F5DC" height="36.2969" rx="1.5" ry="1.5" style="stroke:#919129;stroke-width:0.5;" width="186.9541" x="128.5" y="7"/><text fill="#000000" font-family="system-ui" font-size="14" lengthAdjust="spacing" textLength="166.9541" x="138.5" y="29.9951">Welcome to Acme Bank</text></g><!--entity n1--><g class="entity" data-qualified-name="n1" data-source-line="11" id="ent0003"><polygon fill="#FFFAF0" points="298,133.5,260,104,184,104,146,133.5,184,163,260,163,298,133.5" style="stroke:#C68400;stroke-width:0.5;"/><text fill="#000000" font-family="system-ui" font-size="14" lengthAdjust="spacing" textLength="76.0225" x="184.0112" y="121.9951">Are you an</text><text fill="#000000" font-family="system-ui" font-size="14" lengthAdjust="spacing" textLength="55.2207" x="184.0112" y="138.292">existing</text><text fill="#000000" font-family="system-ui" font-size="14" lengthAdjust="spacing" textLength="73.3564" x="184.0112" y="154.5889">customer?</text></g><!--entity n2--><g class="entity" data-qualified-name="n2" data-source-line="12" id="ent0004"><rect fill="#F5FFFA" height="52.5938" rx="1.5" ry="1.5" style="stroke:#00C864;stroke-width:0.5;" width="203.3809" x="43.5" y="240"/><text fill="#000000" font-family="system-ui" font-size="14" lengthAdjust="spacing" textLength="183.3809" x="53.5" y="262.9951">Please enter your account</text><text fill="#000000" font-family="system-ui" font-size="14" lengthAdjust="spacing" textLength="54.6396" x="53.5" y="279.292">number</text></g><!--entity n3--><g class="entity" data-qualified-name="n3" data-source-line="13" id="ent0005"><rect fill="#F5FFFA" height="36.2969" rx="1.5" ry="1.5" style="stroke:#00C864;stroke-width:0.5;" width="170.6504" x="71.5" y="370"/><text fill="#000000" font-family="system-ui" font-size="14" lengthAdjust="spacing" textLength="150.6504" x="81.5" y="392.9951">Please enter your PIN</text></g><!--entity n4--><g class="entity" data-qualified-name="n4" data-source-line="14" id="ent0006"><rect fill="#F5F5DC" height="68.8906" rx="1.5" ry="1.5" style="stroke:#919129;stroke-width:0.5;" width="223.6221" x="116" y="467"/><text fill="#000000" font-family="system-ui" font-size="14" lengthAdjust="spacing" textLength="203.6221" x="126" y="489.9951">Please be aware that the call</text><text fill="#000000" font-family="system-ui" font-size="14" lengthAdjust="spacing" textLength="202.0635" x="126" y="506.292">may be recorded for training</text><text fill="#000000" font-family="system-ui" font-size="14" lengthAdjust="spacing" textLength="147.3008" x="126" y="522.5889">and quality purposes</text></g><!--entity n5--><g class="entity" data-qualified-name="n5" data-source-line="15" id="ent0007"><polygon fill="#FFFAF0" points="341,626.5,284.5,597,171.5,597,115,626.5,171.5,656,284.5,656,341,626.5" style="stroke:#C68400;stroke-width:0.5;"/><text fill="#000000" font-family="system-ui" font-size="14" lengthAdjust="spacing" textLength="113.0732" x="171.5366" y="614.9951">What would you</text><text fill="#000000" font-family="system-ui" font-size="14" lengthAdjust="spacing" textLength="92.0254" x="171.5366" y="631.292">like to talk to</text><text fill="#000000" font-family="system-ui" font-size="14" lengthAdjust="spacing" textLength="68.4414" x="171.5366" y="647.5889">us about?</text></g><!--entity n6--><g class="entity" data-qualified-name="n6" data-source-line="16" id="ent0008"><rect fill="#FFFACD" height="36.2969" rx="1.5" ry="1.5" style="stroke:#B8A600;stroke-width:0.5;" width="204.0576" x="7" y="733"/><text fill="#000000" font-family="system-ui" font-size="14" lengthAdjust="spacing" textLength="184.0576" x="17" y="755.9951">Redirect to 01904 100000</text></g><!--entity n7--><g class="entity" data-qualified-name="n7" data-source-line="17" id="ent0009"><rect fill="#FFFACD" height="36.2969" rx="1.5" ry="1.5" style="stroke:#B8A600;stroke-width:0.5;" width="204.0576" x="246" y="733"/><text fill="#000000" font-family="system-ui" font-size="14" lengthAdjust="spacing" textLength="184.0576" x="256" y="755.9951">Redirect to 01904 100001</text></g><!--link n0 to n1--><g class="link" data-entity-1="ent0002" data-entity-2="ent0003" data-link-type="dependency" data-source-line="84" id="lnk10"><path codeLine="84" d="M222,43.11 C222,59.46 222,78.41 222,97.8" fill="none" id="n0-to-n1" style="stroke:#7A7A7A;stroke-width:1;"/><polygon fill="#7A7A7A" points="222,103.8,226,94.8,222,98.8,218,94.8,222,103.8" style="stroke:#7A7A7A;stroke-width:1;"/></g><!--link n1 to n2--><g class="link" data-entity-1="ent0003" data-entity-2="ent0004" data-link-type="dependency" data-source-line="85" id="lnk11"><path codeLine="85" d="M205.1,163.25 C191.64,186.14 176.0216,212.7281 163.0716,234.7481" fill="none" id="n1-to-n2" style="stroke:#7A7A7A;stroke-width:1;"/><polygon fill="#7A7A7A" points="160.03,239.92,168.0403,234.1899,162.5647,235.6101,161.1445,230.1344,160.03,239.92" style="stroke:#7A7A7A;stroke-width:1;"/><text fill="#000000" font-family="system-ui" font-size="13" lengthAdjust="spacing" textLength="22.7119" x="187" y="206.0669">Yes</text></g><!--link n1 to n4--><g class="link" data-entity-1="ent0003" data-entity-2="ent0006" data-link-type="dependency" data-source-line="86" id="lnk12"><path codeLine="86" d="M236.85,163.16 C246.73,183.88 258.8,212.89 264,240 C269.15,266.89 264.83,379.59 260,406 C256.23,426.62 250.9948,443.2488 244.2848,460.9688" fill="none" id="n1-to-n4" style="stroke:#7A7A7A;stroke-width:1;"/><polygon fill="#7A7A7A" points="242.16,466.58,249.0879,459.5797,243.9306,461.904,241.6064,456.7467,242.16,466.58" style="stroke:#7A7A7A;stroke-width:1;"/><text fill="#000000" font-family="system-ui" font-size="13" lengthAdjust="spacing" textLength="17.6782" x="267" y="336.0669">No</text></g><!--link n3 to n4--><g class="link" data-entity-1="ent0005" data-entity-2="ent0006" data-link-type="dependency" data-source-line="87" id="lnk13"><path codeLine="87" d="M168.09,406.42 C178.31,422.47 190.5366,441.6694 203.1866,461.5294" fill="none" id="n3-to-n4" style="stroke:#7A7A7A;stroke-width:1;"/><polygon fill="#7A7A7A" points="206.41,466.59,204.9486,456.8502,203.7238,462.3728,198.2012,461.148,206.41,466.59" style="stroke:#7A7A7A;stroke-width:1;"/></g><!--link n4 to n5--><g class="link" data-entity-1="ent0006" data-entity-2="ent0007" data-link-type="dependency" data-source-line="88" id="lnk14"><path codeLine="88" d="M228,536.11 C228,555.17 228,572.77 228,590.93" fill="none" id="n4-to-n5" style="stroke:#7A7A7A;stroke-width:1;"/><polygon fill="#7A7A7A" points="228,596.93,232,587.93,228,591.93,224,587.93,228,596.93" style="stroke:#7A7A7A;stroke-width:1;"/></g><!--link n5 to n6--><g class="link" data-entity-1="ent0007" data-entity-2="ent0008" data-link-type="dependency" data-source-line="89" id="lnk15"><path codeLine="89" d="M200.1,656.22 C177.02,679.98 149.1804,708.636 129.8904,728.496" fill="none" id="n5-to-n6" style="stroke:#7A7A7A;stroke-width:1;"/><polygon fill="#7A7A7A" points="125.71,732.8,134.8499,729.131,129.1937,729.2134,129.1113,723.5571,125.71,732.8" style="stroke:#7A7A7A;stroke-width:1;"/><text fill="#000000" font-family="system-ui" font-size="13" lengthAdjust="spacing" textLength="50.7876" x="170" y="699.0669">Savings</text></g><!--link n5 to n7--><g class="link" data-entity-1="ent0007" data-entity-2="ent0009" data-link-type="dependency" data-source-line="90" id="lnk16"><path codeLine="90" d="M256.13,656.22 C279.41,679.98 307.5018,708.6533 326.9518,728.5133" fill="none" id="n5-to-n7" style="stroke:#7A7A7A;stroke-width:1;"/><polygon fill="#7A7A7A" points="331.15,732.8,327.7105,723.5712,327.6515,729.2278,321.995,729.1688,331.15,732.8" style="stroke:#7A7A7A;stroke-width:1;"/><text fill="#000000" font-family="system-ui" font-size="13" lengthAdjust="spacing" textLength="68.853" x="300" y="699.0669">Mortgages</text></g><!--link n2 to n3--><g class="link" data-entity-1="ent0004" data-entity-2="ent0005" data-link-type="dependency" data-source-line="91" id="lnk17"><path codeLine="91" d="M147.57,293.14 C149.9,316.32 152.6594,343.8301 154.6794,363.9101" fill="none" id="n2-to-n3" style="stroke:#7A7A7A;stroke-width:1;"/><polygon fill="#7A7A7A" points="155.28,369.88,158.3591,360.5248,154.7795,364.9051,150.3993,361.3256,155.28,369.88" style="stroke:#7A7A7A;stroke-width:1;"/></g><?plantuml-src hPHjQzim482_wrU8xdCxst6S5q96OlO6NLhMGIa4niM-E2Aob4ho4ZFsttUAaoPh4oYi3jX8ylFeT3aVIAdNfTW8LR25o95RXmQrgrTecLqAjG839JUwKdcgZKB3MqVpESwXakwJLcu29T4ryULb9OxU6HcZrwcMsl1tdP7_CNyPp1oeGYA_k4UPQQATvgECdcDGomiEbgk03mOgyD4CXvmjS0E5LlnYP93NkkAWfWetmZeAVwgooZhIc0yD6testBD7szrA18iS5HtLQmo7BAC3kgbILJb3q_2HvwDNyRTV9mtJyaphF3D33ckWwDq27DsGPo3bL9LG-pK2jCanvtDAbZCWrFPWe7B-M84KhkQhogoqHTli5_lzuXVvkVVsjQvaxkERAYcMs-mwa4jwJbLbESnqvNQfQdjD-qJOtp4NVkZX8Em5CGy3VpLOuh7azLZOO1sFTVOOOmFhQeb3ngv-teAZf2h-ct6wnf0jYrtf-V8fjCot2zT2uQwYagIT107xu-dK22SUApo3BnUm5C_vRj8PXv6Vt3cqijlCkpEMaigjDlGNF3UbGTZQHt9NPHbQUqRnusFwPN9pVVFvuRaZ2CRxqpHblpCSlT8BUs7KE-cTeIYQiCXmrTJ-Iq6QT6FQuvHWJZUGwuLmHvhej2O8qcuIdqcHSfb1A0-Irbj8ul_DIFjjCfASreoxe-ICHcAfLROGyxbM1q_dJJo3z_llXzhbPQxNwd98tOzH0tmQHNt-G0tzU2hkyubcrB4ECupwoTEepQWjF8sIFh-3NzIDx3_JdJx_feqheF3swB3GyYt-Bm00?></g></svg>
