<?plantuml 1.2026.1?><svg xmlns="http://www.w3.org/2000/svg" xmlns:xlink="http://www.w3.org/1999/xlink" contentStyleType="text/css" data-diagram-type="CLASS" height="201px" preserveAspectRatio="none" style="width:436px;height:201px;background:#FFFFFF;" version="1.1" viewBox="0 0 436 201" width="436px" zoomAndPan="magnify"><defs/><g><!--entity n0--><g class="entity" data-qualified-name="n0" data-source-line="11" id="ent0002"><rect fill="#F0FFFF" height="46.2969" rx="1.5" ry="1.5" style="stroke:#00C6C6;stroke-width:0.5;" width="64.5273" x="102" y="149"/><rect fill="#F0FFFF" height="10" style="stroke:#00C6C6;stroke-width:0.5;" width="15" x="146.5273" y="154"/><rect fill="#F0FFFF" height="2" style="stroke:#00C6C6;stroke-width:0.5;" width="4" x="144.5273" y="156"/><rect fill="#F0FFFF" height="2" style="stroke:#00C6C6;stroke-width:0.5;" width="4" x="144.5273" y="160"/><text fill="#000000" font-family="system-ui" font-size="14" lengthAdjust="spacing" textLength="24.5273" x="117" y="181.9951">Not</text></g><!--entity n1--><g class="entity" data-qualified-name="n1" data-source-line="12" id="ent0003"><rect fill="#FFFAF0" height="36.2969" rx="1.5" ry="1.5" style="stroke:#C68400;stroke-width:0.5;" width="32.7627" x="7" y="154"/><text fill="#000000" font-family="system-ui" font-size="14" lengthAdjust="spacing" textLength="12.7627" x="17" y="176.9951">in</text></g><!--entity n3--><g class="entity" data-qualified-name="n3" data-source-line="14" id="ent0004"><rect fill="#F0FFFF" height="46.2969" rx="1.5" ry="1.5" style="stroke:#00C6C6;stroke-width:0.5;" width="67.3369" x="101" y="68"/><rect fill="#F0FFFF" height="10" style="stroke:#00C6C6;stroke-width:0.5;" width="15" x="148.3369" y="73"/><rect fill="#F0FFFF" height="2" style="stroke:#00C6C6;stroke-width:0.5;" width="4" x="146.3369" y="75"/><rect fill="#F0FFFF" height="2" style="stroke:#00C6C6;stroke-width:0.5;" width="4" x="146.3369" y="79"/><text fill="#000000" font-family="system-ui" font-size="14" lengthAdjust="spacing" textLength="27.3369" x="116" y="100.9951">And</text></g><!--entity n4--><g class="entity" data-qualified-name="n4" data-source-line="15" id="ent0005"><rect fill="#FFFAF0" height="36.2969" rx="1.5" ry="1.5" style="stroke:#C68400;stroke-width:0.5;" width="28.5791" x="9" y="7"/><text fill="#000000" font-family="system-ui" font-size="14" lengthAdjust="spacing" textLength="8.5791" x="19" y="29.9951">a</text></g><!--entity n5--><g class="entity" data-qualified-name="n5" data-source-line="16" id="ent0006"><rect fill="#FFFAF0" height="36.2969" rx="1.5" ry="1.5" style="stroke:#C68400;stroke-width:0.5;" width="28.8867" x="9" y="78"/><text fill="#000000" font-family="system-ui" font-size="14" lengthAdjust="spacing" textLength="8.8867" x="19" y="100.9951">b</text></g><!--entity n7--><g class="entity" data-qualified-name="n7" data-source-line="18" id="ent0007"><rect fill="#F0FFFF" height="46.2969" rx="1.5" ry="1.5" style="stroke:#00C6C6;stroke-width:0.5;" width="56.7754" x="270" y="109"/><rect fill="#F0FFFF" height="10" style="stroke:#00C6C6;stroke-width:0.5;" width="15" x="306.7754" y="114"/><rect fill="#F0FFFF" height="2" style="stroke:#00C6C6;stroke-width:0.5;" width="4" x="304.7754" y="116"/><rect fill="#F0FFFF" height="2" style="stroke:#00C6C6;stroke-width:0.5;" width="4" x="304.7754" y="120"/><text fill="#000000" font-family="system-ui" font-size="14" lengthAdjust="spacing" textLength="16.7754" x="285" y="141.9951">Or</text></g><!--entity n10--><g class="entity" data-qualified-name="n10" data-source-line="21" id="ent0008"><rect fill="#FFFACD" height="36.2969" rx="1.5" ry="1.5" style="stroke:#B8A600;stroke-width:0.5;" width="42.9277" x="388" y="114"/><text fill="#000000" font-family="system-ui" font-size="14" lengthAdjust="spacing" textLength="22.9277" x="398" y="136.9951">out</text></g><!--link n0 to n7--><g class="link" data-entity-1="ent0002" data-entity-2="ent0007" data-link-type="dependency" data-source-line="83" id="lnk9"><path codeLine="83" d="M167.05,169.69 C188.03,167.61 216.02,163.8 240,157 C250.05,154.15 255.1732,152.3705 264.4932,148.2005" fill="none" id="n0-to-n7" style="stroke:#7A7A7A;stroke-width:1;"/><polygon fill="#7A7A7A" points="269.97,145.75,260.1212,145.7745,265.406,147.792,263.3884,153.0769,269.97,145.75" style="stroke:#7A7A7A;stroke-width:1;"/><text fill="#000000" font-family="system-ui" font-size="13" lengthAdjust="spacing" textLength="40.1489" x="199" y="153.0669">out&#8594;a</text></g><!--link n3 to n7--><g class="link" data-entity-1="ent0004" data-entity-2="ent0007" data-link-type="dependency" data-source-line="84" id="lnk10"><path codeLine="84" d="M168.28,99.3 C198.15,106.85 235.9436,116.4173 264.0636,123.5373" fill="none" id="n3-to-n7" style="stroke:#7A7A7A;stroke-width:1;"/><polygon fill="#7A7A7A" points="269.88,125.01,262.1371,118.9233,265.033,123.7827,260.1735,126.6785,269.88,125.01" style="stroke:#7A7A7A;stroke-width:1;"/><text fill="#000000" font-family="system-ui" font-size="13" lengthAdjust="spacing" textLength="40.4346" x="199" y="103.0669">out&#8594;b</text></g><!--link n1 to n0--><g class="link" data-entity-1="ent0003" data-entity-2="ent0002" data-link-type="dependency" data-source-line="86" id="lnk12"><path codeLine="86" d="M40.12,172 C56.13,172 75.48,172 95.73,172" fill="none" id="n1-to-n0" style="stroke:#7A7A7A;stroke-width:1;"/><polygon fill="#7A7A7A" points="101.73,172,92.73,168,96.73,172,92.73,176,101.73,172" style="stroke:#7A7A7A;stroke-width:1;"/></g><!--link n4 to n3--><g class="link" data-entity-1="ent0005" data-entity-2="ent0004" data-link-type="dependency" data-source-line="87" id="lnk14"><path codeLine="87" d="M38.3,33.36 C53.89,42.79 74.6481,55.3613 95.4981,67.9913" fill="none" id="n4-to-n3" style="stroke:#7A7A7A;stroke-width:1;"/><polygon fill="#7A7A7A" points="100.63,71.1,95.0046,63.0157,96.3534,68.5094,90.8597,69.8583,100.63,71.1" style="stroke:#7A7A7A;stroke-width:1;"/></g><!--link n5 to n3--><g class="link" data-entity-1="ent0006" data-entity-2="ent0004" data-link-type="dependency" data-source-line="88" id="lnk16"><path codeLine="88" d="M38.3,95.37 C53.89,94.65 73.7862,93.7331 94.6362,92.7831" fill="none" id="n5-to-n3" style="stroke:#7A7A7A;stroke-width:1;"/><polygon fill="#7A7A7A" points="100.63,92.51,91.4573,88.9238,95.6352,92.7376,91.8214,96.9155,100.63,92.51" style="stroke:#7A7A7A;stroke-width:1;"/></g><!--link n7 to n10--><g class="link" data-entity-1="ent0007" data-entity-2="ent0008" data-link-type="dependency" data-source-line="89" id="lnk17"><path codeLine="89" d="M327.01,132 C345.93,132 364.65,132 381.89,132" fill="none" id="n7-to-n10" style="stroke:#7A7A7A;stroke-width:1;"/><polygon fill="#7A7A7A" points="387.89,132,378.89,128,382.89,132,378.89,136,387.89,132" style="stroke:#7A7A7A;stroke-width:1;"/></g><?plantuml-src hPDDRjim48NtF0NXh9LArPzH20PieMaNWLsWtMGLC18b4QPc79A2wnRTzW0zOazIqf9JnP5NYGG81EVDnvcX7fCIzwtuBg0cZIWvrOOhZkQmuvhehO0TKwob2ZieSrJ05Gr7-oMlM2VD3O9PizPc7sn-wtLYf5agXViS9IfwbIxTImYHl3BK85MYRWmjXUA54GWsKc2xG-1Ww6oDPaQPfk3JB0FV5RLOKEAq36h9wKn0BmYS83W9nembbBqaT99mWi7wUEJYqKJyeO_7BXvF7R5HlI9rYlH9CMPWDtGI75i9_F-gJ9k3v0j2hk-_C6Ed3_GdeVPPiM9R3uDtmwjHbiV0hG0-p3D9uiJtoI-NdIjXn6F7BwHl6xOLv_dp95q5xztcm43GHZ5XsvgcjCAMgr3pSrBk1-6fagzTKN2jBo2-VSm_hpUtcqztvmpVNvswwMzx83oJv4cUJ7BPZqxrPLd2TVytl0JaoJooPqm1AljXSjy8CyA4hwqZUfiwuhV1fAyUwuMBMSsNoOL296yHYaPKbJNu0ChUdNvxQswln3ru2-kW3zGwvU_lFunOlxxSVZZACw_RUTPAJZEiez4w9jQ9Jxc1Rpts3m00?></g></svg>
