<?plantuml 1.2026.1?><svg xmlns="http://www.w3.org/2000/svg" xmlns:xlink="http://www.w3.org/1999/xlink" contentStyleType="text/css" data-diagram-type="CLASS" height="162px" preserveAspectRatio="none" style="width:361px;height:162px;background:#FFFFFF;" version="1.1" viewBox="0 0 361 162" width="361px" zoomAndPan="magnify"><defs/><g><!--entity n0--><g class="entity" data-qualified-name="n0" data-source-line="10" id="ent0002"><rect fill="#F5F5DC" height="36.2969" rx="1.5" ry="1.5" style="stroke:#919129;stroke-width:0.5;" width="77.6816" x="7" y="120"/><text fill="#000000" font-family="system-ui" font-size="14" lengthAdjust="spacing" textLength="57.6816" x="17" y="142.9951">Analysis</text></g><!--entity n1--><g class="entity" data-qualified-name="n1" data-source-line="11" id="ent0003"><rect fill="#F5F5DC" height="36.2969" rx="1.5" ry="1.5" style="stroke:#919129;stroke-width:0.5;" width="68.3369" x="287" y="120"/><text fill="#000000" font-family="system-ui" font-size="14" lengthAdjust="spacing" textLength="48.3369" x="297" y="142.9951">Design</text></g><!--entity n2--><g class="entity" data-qualified-name="n2" data-source-line="12" id="ent0004"><rect fill="#F5F5DC" height="36.2969" rx="1.5" ry="1.5" style="stroke:#919129;stroke-width:0.5;" width="131.166" x="120.5" y="120"/><text fill="#000000" font-family="system-ui" font-size="14" lengthAdjust="spacing" textLength="111.166" x="130.5" y="142.9951">Implementation</text></g><!--entity n3--><g class="entity" data-qualified-name="n3" data-source-line="13" id="ent0005"><rect fill="#FFFAF0" height="36.2969" rx="1.5" ry="1.5" style="stroke:#C68400;stroke-width:0.5;" width="53.667" x="94" y="7"/><text fill="#000000" font-family="system-ui" font-size="14" lengthAdjust="spacing" textLength="33.667" x="104" y="29.9951">Alice</text></g><!--entity n4--><g class="entity" data-qualified-name="n4" data-source-line="14" id="ent0006"><rect fill="#FFFAF0" height="36.2969" rx="1.5" ry="1.5" style="stroke:#C68400;stroke-width:0.5;" width="47.0566" x="230.5" y="7"/><text fill="#000000" font-family="system-ui" font-size="14" lengthAdjust="spacing" textLength="27.0566" x="240.5" y="29.9951">Bob</text></g><!--link n3 to n0--><g class="link" data-entity-1="ent0005" data-entity-2="ent0002" data-link-type="dependency" data-source-line="66" id="lnk7"><path codeLine="66" d="M109.28,43.34 C95.19,64.2 75.0485,94.008 60.9985,114.808" fill="none" id="n3-to-n0" style="stroke:#7A7A7A;stroke-width:1;"/><polygon fill="#7A7A7A" points="57.64,119.78,65.9924,114.561,60.4387,115.6367,59.3631,110.083,57.64,119.78" style="stroke:#7A7A7A;stroke-width:1;"/><text fill="#000000" font-family="system-ui" font-size="13" lengthAdjust="spacing" textLength="37.1655" x="89" y="86.0669">100%</text></g><!--link n4 to n1--><g class="link" data-entity-1="ent0006" data-entity-2="ent0003" data-link-type="dependency" data-source-line="67" id="lnk8"><path codeLine="67" d="M264.47,43.34 C277.06,64.2 294.9503,93.8427 307.5003,114.6427" fill="none" id="n4-to-n1" style="stroke:#7A7A7A;stroke-width:1;"/><polygon fill="#7A7A7A" points="310.6,119.78,309.3754,110.0076,308.0169,115.4989,302.5256,114.1405,310.6,119.78" style="stroke:#7A7A7A;stroke-width:1;"/><text fill="#000000" font-family="system-ui" font-size="13" lengthAdjust="spacing" textLength="37.1655" x="292" y="86.0669">100%</text></g><!--link n4 to n2--><g class="link" data-entity-1="ent0006" data-entity-2="ent0004" data-link-type="dependency" data-source-line="68" id="lnk9"><path codeLine="68" d="M243.38,43.34 C230.6,64.2 212.4239,93.8635 199.6839,114.6635" fill="none" id="n4-to-n2" style="stroke:#7A7A7A;stroke-width:1;"/><polygon fill="#7A7A7A" points="196.55,119.78,204.6618,114.1945,199.1616,115.5162,197.8398,110.016,196.55,119.78" style="stroke:#7A7A7A;stroke-width:1;"/><text fill="#000000" font-family="system-ui" font-size="13" lengthAdjust="spacing" textLength="28.8945" x="225" y="86.0669">50%</text></g><!--link n3 to n2--><g class="link" data-entity-1="ent0005" data-entity-2="ent0004" data-link-type="dependency" data-source-line="69" id="lnk10"><path codeLine="69" d="M129.14,43.15 C135.5,56.21 144.79,74.53 154,90 C160.06,100.18 164.024,106.2283 170.184,115.0083" fill="none" id="n3-to-n2" style="stroke:#7A7A7A;stroke-width:1;"/><polygon fill="#7A7A7A" points="173.63,119.92,171.7354,110.2551,170.7583,115.8269,165.1865,114.8498,173.63,119.92" style="stroke:#7A7A7A;stroke-width:1;"/><text fill="#000000" font-family="system-ui" font-size="13" lengthAdjust="spacing" textLength="28.8945" x="155" y="86.0669">50%</text></g><?plantuml-src hPFVJy8m483V-rSq61_HRiCXX930_9aGCD4NdqpPpd6XQx7jWiJulzkwOHOSJzebUxXzz-NkUkD2g6s1xoXpii8CgB6WGTdT1WmnQvGRhdb1jIfbbYWjGTEe4S_WbPV2tYXfvxnmsJkNNtHBR30JhTKsKK9fUjAV-8Vueo6rNEO2Q6SYkTWPD1tA3PMCZaQI-Gh6Ozh4hi1WBYiey53G0jqN6m45ICijgXeEFHosm1E1ALHCv9ceXPcgPKNqFD7R4uICZDq961DozlB0hHkRf1-4kZFbwJgl9-QxpfN8lZ_CK48zY3Y-Y1aZdpuxqMZnhOGZwUiLN-DX_cNSdmQX3zOE9OtL7AKzOYdGbQkLWKDJme9eNybZcQPWp175qtLoDr_C5hVFXmx6fljkgfkh3Gra40o2SD3gNGBcLLdES5RTwby4uLy5KRiWYIzxhiismQjxSR5TeMreUl-X6PtlryojQ3TJMzaTktzaI0F6JebRofzOq18BX_J2Xw9V8NU-0000?></g></svg>
